<svg width="3000" height="1000" viewBox="0 0 369.66666666666663 55.89232720269097" class="css-1j8o68f">
  <defs id="SvgjsDefs2229">
    <linearGradient id="SvgjsLinearGradient2234">
      <stop id="SvgjsStop2235" stop-color="#00ddff" offset="0"></stop>
      <stop id="SvgjsStop2236" stop-color="#ff00d4" offset="1"></stop>
    </linearGradient>
  </defs>
  <g id="SvgjsG2230" featurekey="odWo6G-0" transform="matrix(0.2222222222222222,0,0,0.2222222222222222,-15.222222222222221,-28.952223036024304)" fill="url(#SvgjsLinearGradient2234)">
    <g xmlns="http://www.w3.org/2000/svg">
      <polygon points="121.6,256.1 170.1,207.7 143.5,181.1 68.5,256.1 122.5,310.1 148.9,283.4  "></polygon>
      <polygon points="389.5,202.1 363.1,228.7 390.4,256.1 342.1,304.6 368.5,331.1 443.5,256.1  "></polygon>
      <rect x="96.9" y="237.3" transform="matrix(0.7071 -0.7071 0.7071 0.7071 -106.0356 256.0074)" width="318.2" height="37.5"></rect>
    </g>
  </g>
  <g id="SvgjsG2231" featurekey="VGK2BT-0" transform="matrix(3.1948975045439054,0,0,3.1948975045439054,97.16452142639747,-12.692060985487256)" fill="#d9d9d9">
    <path d="M10.723 5.888999999999999 l2.9297 0 l0 14.111 l-2.9297 0 l0 -5.8008 l-5.9668 0 l0 5.8008 l-2.9297 0 l0 -14.111 l2.9297 0 l0 5.7617 l5.9668 0 l0 -5.7617 z M18.369115625 8.457 c-0.88867 0 -1.6309 -0.72266 -1.6309 -1.6211 c0 -0.88867 0.74219 -1.6113 1.6309 -1.6113 c0.86914 0 1.6113 0.72266 1.6113 1.6113 c0 0.89844 -0.74219 1.6211 -1.6113 1.6211 z M16.933615625 20 l0 -10.039 l2.832 0 l0 10.039 l-2.832 0 z M32.118703124999996 14.834 l-0.029297 0.67383 l-7.4414 0 c0.11719 1.6699 1.2305 2.4707 2.5684 2.4707 c1.0059 0 1.7871 -0.46875 2.168 -1.3574 l2.5781 0.38086 c-0.66406 2.0313 -2.4707 3.1934 -4.7266 3.1934 c-3.2422 0 -5.3613 -1.9141 -5.3613 -5.2148 s2.1777 -5.2344 5.2734 -5.2344 c2.8418 0 4.9609 1.5723 4.9707 5.0879 z M27.168003125 11.7383 c-1.2793 0 -2.168 0.5957 -2.4414 1.9336 l4.6094 0 c-0.14648 -1.2793 -1.0156 -1.9336 -2.168 -1.9336 z M40.908234375 9.961 l2.8125 0 l0 10.039 l-2.666 0 l-0.068359 -1.2109 c-0.70313 0.88867 -1.8164 1.4063 -3.1934 1.4063 c-2.4121 0 -3.7402 -1.2598 -3.7402 -3.4766 l0 -6.7578 l2.8223 0 l0 6.1523 c0 1.3281 0.83008 1.8164 1.8066 1.8164 c1.1621 0 2.2168 -0.58594 2.2266 -2.4316 l0 -5.5371 z M55.18578125 5.888999999999999 l0 2.5781 l-3.3496 0 l0 11.533 l-2.9004 0 l0 -11.533 l-3.3691 0 l0 -2.5781 l9.6191 0 z M59.726571875 11.5527 c0.50781 -0.88867 1.8262 -1.709 3.2813 -1.709 l0 2.5098 c-2.1289 0 -3.1445 0.625 -3.1445 2.7539 l0 4.8926 l-2.832 0 l0 -10.039 l2.6953 0 l0 1.5918 z M72.890625 17.2754 c0 1.2305 0.11719 2.0117 0.24414 2.4512 l0 0.27344 l-2.627 0 l-0.22461 -1.0938 c-0.75195 0.9082 -2.0508 1.2891 -3.2227 1.2891 c-1.582 0 -3.125 -0.70313 -3.125 -2.793 c0 -2.0801 1.5527 -2.7832 3.6523 -3.2422 l1.6504 -0.37109 c0.71289 -0.16602 0.9668 -0.41016 0.9668 -0.82031 c0 -0.98633 -0.89844 -1.2598 -1.6895 -1.2598 c-1.0156 0 -1.7871 0.40039 -1.9629 1.5332 l-2.4902 -0.44922 c0.41992 -2.0801 1.9434 -3.0273 4.6094 -3.0273 c2.0117 0 4.2188 0.5957 4.2188 3.623 l0 3.8867 z M67.939425 18.291 c1.3379 0 2.4121 -0.88867 2.4121 -2.8809 l-2.3828 0.67383 c-0.78125 0.18555 -1.3477 0.45898 -1.3477 1.1328 c0 0.72266 0.5957 1.0742 1.3184 1.0742 z M81.552721875 9.766 c2.4121 0 3.7402 1.25 3.7402 3.4766 l0 6.7578 l-2.8223 0 l0 -6.1523 c0 -1.3379 -0.83008 -1.8262 -1.7969 -1.8262 c-1.1621 0 -2.2168 0.58594 -2.2363 2.4414 l0 5.5371 l-2.8125 0 l0 -10.039 l2.8125 0 l0 1.1133 c0.70313 -0.83008 1.7871 -1.3086 3.1152 -1.3086 z"></path>
  </g>
</svg>